<svg id="Iconly_Light-outline_Time_Circle" data-name="Iconly/Light-outline/Time Circle" xmlns="http://www.w3.org/2000/svg" width="28.314" height="28.314" viewBox="0 0 28.314 28.314">
  <g id="Time_Circle" data-name="Time Circle">
    <path id="Time_Circle-2" data-name="Time Circle" d="M0,14.157A14.157,14.157,0,1,1,14.157,28.314,14.173,14.173,0,0,1,0,14.157Zm2.124,0A12.034,12.034,0,1,0,14.157,2.124,12.048,12.048,0,0,0,2.124,14.157ZM18.6,19.3l-.129-.066-5.337-3.184a1.063,1.063,0,0,1-.506-.753l-.011-.158V8.277a1.062,1.062,0,0,1,2.114-.144l.009.144v6.257l4.82,2.877a1.062,1.062,0,0,1,.433,1.326l-.065.129A1.062,1.062,0,0,1,18.6,19.3Z" fill="#d1a126"/>
  </g>
</svg>
