<?xml version="1.0" encoding="UTF-8"?>
<svg xmlns="http://www.w3.org/2000/svg" xmlns:xlink="http://www.w3.org/1999/xlink" viewBox="0 0 64 64" width="64px" height="64px">
<g id="surface16483305">
<path style="fill-rule:nonzero;fill:rgb(0%,0%,0%);fill-opacity:1;stroke-width:1;stroke-linecap:butt;stroke-linejoin:round;stroke:rgb(80.000001%,80.000001%,80.000001%);stroke-opacity:1;stroke-miterlimit:10;" d="M 118.25456 53.745437 C 118.25456 71.509737 103.764299 85.999999 85.999999 85.999999 C 68.235698 85.999999 53.745437 71.509737 53.745437 53.745437 C 53.745437 35.991698 68.235698 21.501436 85.999999 21.501436 C 103.764299 21.501436 118.25456 35.991698 118.25456 53.745437 Z M 139.74704 139.74704 L 128.99552 139.74704 C 128.99552 115.941611 109.805428 96.751519 85.999999 96.751519 C 62.194569 96.751519 43.004477 115.941611 43.004477 139.74704 L 32.252957 139.74704 C 32.252957 110.143394 56.396352 85.999999 85.999999 85.999999 C 115.603645 85.999999 139.74704 110.143394 139.74704 139.74704 Z M 64.496957 53.745437 C 64.496957 65.679836 74.076161 75.248478 85.999999 75.248478 C 97.923836 75.248478 107.50304 65.679836 107.50304 53.745437 C 107.50304 41.821599 97.923836 32.252957 85.999999 32.252957 C 74.076161 32.252957 64.496957 41.821599 64.496957 53.745437 Z M 64.496957 53.745437 " transform="matrix(0.36986,0,0,0.36986,0.192,0.192)"/>
<path style=" stroke:none;fill-rule:nonzero;fill:rgb(0%,0%,0%);fill-opacity:1;" d="M 32 8.144531 C 25.429688 8.144531 20.070312 13.503906 20.070312 20.070312 C 20.070312 26.640625 25.429688 32 32 32 C 38.570312 32 43.929688 26.640625 43.929688 20.070312 C 43.929688 13.503906 38.570312 8.144531 32 8.144531 Z M 32 32 C 21.050781 32 12.121094 40.929688 12.121094 51.878906 L 16.097656 51.878906 C 16.097656 43.074219 23.195312 35.976562 32 35.976562 C 40.804688 35.976562 47.902344 43.074219 47.902344 51.878906 L 51.878906 51.878906 C 51.878906 40.929688 42.949219 32 32 32 Z M 32 12.121094 C 36.410156 12.121094 39.953125 15.660156 39.953125 20.070312 C 39.953125 24.484375 36.410156 28.023438 32 28.023438 C 27.589844 28.023438 24.046875 24.484375 24.046875 20.070312 C 24.046875 15.660156 27.589844 12.121094 32 12.121094 Z M 32 12.121094 "/>
</g>
</svg>
