<?xml version="1.0"?><svg fill="#000000" xmlns="http://www.w3.org/2000/svg"  viewBox="0 0 24 24" width="48px" height="48px">    <path d="M 12.027344 2 C 11.699344 2 11.392078 2.1616406 11.205078 2.4316406 L 6.6679688 9 L 2.0019531 9 C 1.6889531 9 1.3950781 9.1455313 1.2050781 9.3945312 C 1.0170781 9.6425313 0.95315625 9.964625 1.0351562 10.265625 L 3.5957031 19.53125 C 3.8347031 20.39525 4.6274375 21 5.5234375 21 L 18.476562 21 C 19.372562 21 20.164344 20.396203 20.402344 19.533203 L 22.962891 10.267578 C 23.045891 9.9665781 22.982922 9.6425312 22.794922 9.3945312 C 22.604922 9.1455313 22.310047 9 21.998047 9 L 17.339844 9 L 12.853516 2.4355469 C 12.667516 2.1635469 12.36025 2.001 12.03125 2 L 12.027344 2 z M 12.023438 4.765625 L 14.916016 9 L 9.0976562 9 L 12.023438 4.765625 z M 3.3144531 11 L 16.8125 11 L 20.685547 11 L 18.474609 19 L 5.5234375 19 L 3.3144531 11 z M 12 13 A 2 2 0 0 0 10 15 A 2 2 0 0 0 12 17 A 2 2 0 0 0 14 15 A 2 2 0 0 0 12 13 z"/></svg>