<svg fill="#7e5300" xmlns="http://www.w3.org/2000/svg"  viewBox="0 0 32 32" width="32px" height="32px"><path d="M 16 4 C 9.3844239 4 4 9.3844287 4 16 C 4 22.615571 9.3844239 28 16 28 C 22.615576 28 28 22.615571 28 16 C 28 9.3844287 22.615576 4 16 4 z M 16 6 C 21.534697 6 26 10.465307 26 16 C 26 21.534693 21.534697 26 16 26 C 10.465303 26 6 21.534693 6 16 C 6 10.465307 10.465303 6 16 6 z M 16 8 C 11.599487 8 8 11.59949 8 16 C 8 20.40051 11.599487 24 16 24 C 20.400513 24 24 20.40051 24 16 C 24 11.59949 20.400513 8 16 8 z M 16 11 C 18.779194 11 21 13.220808 21 16 C 21 18.779192 18.779194 21 16 21 C 13.220806 21 11 18.779192 11 16 C 11 13.220808 13.220806 11 16 11 z M 16 13 C 15.083334 13 14.268559 13.379756 13.751953 13.960938 C 13.235347 14.542118 13 15.277778 13 16 C 13 16.722222 13.235347 17.457881 13.751953 18.039062 C 14.268559 18.620244 15.083334 19 16 19 C 16.916666 19 17.731441 18.620244 18.248047 18.039062 C 18.764653 17.457881 19 16.722222 19 16 C 19 15.277778 18.764653 14.542119 18.248047 13.960938 C 17.731441 13.379755 16.916666 13 16 13 z M 16 15 C 16.416666 15 16.601893 15.120244 16.751953 15.289062 C 16.902014 15.457882 17 15.722222 17 16 C 17 16.277778 16.90201 16.542119 16.751953 16.710938 C 16.601893 16.879756 16.416666 17 16 17 C 15.583334 17 15.398107 16.879756 15.248047 16.710938 C 15.097986 16.542119 15 16.277778 15 16 C 15 15.722222 15.097986 15.457881 15.248047 15.289062 C 15.398107 15.120245 15.583334 15 16 15 z"/></svg>