<svg id="Iconly_Light-outline_3_User" data-name="Iconly/Light-outline/3 User" xmlns="http://www.w3.org/2000/svg" width="35.408" height="28.25" viewBox="0 0 35.408 28.25">
  <g id="_3_User" data-name="3 User" transform="translate(0)">
    <path id="_3_User-2" data-name="3 User" d="M6.8,22.905a4.308,4.308,0,0,1,2.851-4.176c1.766-.805,4.4-1.2,8.041-1.2l.491,0c3.489.034,6,.441,7.688,1.242a4.252,4.252,0,0,1,2.713,4.1A4.246,4.246,0,0,1,26,26.93c-1.617.814-4.015,1.243-7.333,1.311l-.969.009C10.164,28.25,6.8,26.6,6.8,22.905Zm2.414,0c0,2.353,4.611,2.846,8.478,2.846,5.548,0,8.478-.994,8.478-2.875,0-2.351-4.61-2.845-8.478-2.845C12.149,20.032,9.217,21.026,9.217,22.905Zm20.833.673a1.249,1.249,0,0,1,.938-1.476c1.05-.223,1.739-.58,1.908-.951a1.09,1.09,0,0,0,0-.9c-.172-.373-.866-.732-1.931-.949a13.532,13.532,0,0,0-2.107-.315,1.237,1.237,0,0,1-1.121-1.333,1.222,1.222,0,0,1,1.287-1.161,15.562,15.562,0,0,1,2.437.364c1.72.348,3.013,1.017,3.614,2.318a3.665,3.665,0,0,1,0,3.047c-.6,1.3-1.866,1.957-3.6,2.326a1.173,1.173,0,0,1-.245.026A1.217,1.217,0,0,1,30.05,23.578ZM3.933,24.55C2.2,24.181.927,23.521.333,22.226a3.652,3.652,0,0,1,0-3.049,4.363,4.363,0,0,1,3.246-2.239l.332-.073a15.9,15.9,0,0,1,2.47-.37,1.221,1.221,0,0,1,1.287,1.161,1.236,1.236,0,0,1-1.121,1.333,13.535,13.535,0,0,0-1.6.208l-.536.114c-1.031.21-1.724.568-1.9.943a1.076,1.076,0,0,0,0,.9c.169.37.857.727,1.907.951a1.248,1.248,0,0,1,.938,1.476,1.216,1.216,0,0,1-1.179,1A1.172,1.172,0,0,1,3.933,24.55Zm8.516-11.435a7.772,7.772,0,0,1-2.166-5.438,7.773,7.773,0,0,1,2.166-5.436,7.264,7.264,0,0,1,10.5,0A7.778,7.778,0,0,1,25.11,7.678a7.777,7.777,0,0,1-2.164,5.438,7.261,7.261,0,0,1-10.5,0ZM14.154,4.01A5.246,5.246,0,0,0,12.7,7.678a5.247,5.247,0,0,0,1.458,3.67,4.906,4.906,0,0,0,7.084,0A5.247,5.247,0,0,0,22.7,7.678,5.246,5.246,0,0,0,21.239,4.01a4.909,4.909,0,0,0-7.084,0Zm11.436,8.477A1.228,1.228,0,0,1,26.8,11.238a3.525,3.525,0,0,0,3.462-3.586A3.525,3.525,0,0,0,26.8,4.068a1.228,1.228,0,0,1-1.206-1.249A1.228,1.228,0,0,1,26.8,1.57a5.982,5.982,0,0,1,5.875,6.082A5.982,5.982,0,0,1,26.8,13.736,1.228,1.228,0,0,1,25.591,12.487ZM2.735,7.653A5.982,5.982,0,0,1,8.611,1.57,1.228,1.228,0,0,1,9.817,2.819,1.228,1.228,0,0,1,8.611,4.068,3.526,3.526,0,0,0,5.149,7.653a3.526,3.526,0,0,0,3.462,3.586,1.25,1.25,0,0,1,0,2.5A5.982,5.982,0,0,1,2.735,7.653Z" fill="#d1a126"/>
  </g>
</svg>
