<svg id="Layer_1" data-name="Layer 1" xmlns="http://www.w3.org/2000/svg" viewBox="0 0 63 37.8"><defs><style>.cls-1{fill:#ffb600;}.cls-2{fill:#f7981d;}.cls-3{fill:#ff8500;}.cls-4{fill:#ff5050;}.cls-5{fill:#e52836;}.cls-6{fill:#cb2026;}.cls-7{fill:#fff;}.cls-8{fill:#dce5e5;}</style></defs><title>mastercard_icon</title><path class="cls-1" d="M63.5,32a18.9,18.9,0,1,1-37.8,0h0a18.9,18.9,0,1,1,37.8,0Z" transform="translate(-0.5 -13.1)"/><path class="cls-2" d="M44.6,13.1A18.9491,18.9491,0,0,1,63.5,32h0a18.9,18.9,0,1,1-37.8,0" transform="translate(-0.5 -13.1)"/><path class="cls-3" d="M44.6,13.1A18.9491,18.9491,0,0,1,63.5,32h0A18.8848,18.8848,0,0,1,44.6,50.9" transform="translate(-0.5 -13.1)"/><path class="cls-4" d="M19.2,13.1a18.9005,18.9005,0,0,0,.2,37.8A19.12,19.12,0,0,0,32.1,46h0A17.9693,17.9693,0,0,0,34,44H30.1a23.07,23.07,0,0,1-1.4-1.9h6.7a12.81,12.81,0,0,0,1.1-2H27.6a11.9186,11.9186,0,0,1-.8-2H37.2a19.8565,19.8565,0,0,0,1-6,25.8122,25.8122,0,0,0-.4-4H26.2a14.62,14.62,0,0,1,.5-2H37.1a11.9186,11.9186,0,0,0-.8-2H27.5a19.8315,19.8315,0,0,1,1.1-2h6.7a9.51,9.51,0,0,0-1.5-2H30.1A17.0442,17.0442,0,0,1,32,18.2a18.4529,18.4529,0,0,0-12.7-4.9C19.3,13.1,19.3,13.1,19.2,13.1Z" transform="translate(-0.5 -13.1)"/><path class="cls-5" d="M.5,32A18.8848,18.8848,0,0,0,19.4,50.9,19.12,19.12,0,0,0,32.1,46h0A17.9693,17.9693,0,0,0,34,44H30.1a23.07,23.07,0,0,1-1.4-1.9h6.7a12.81,12.81,0,0,0,1.1-2H27.6a11.9186,11.9186,0,0,1-.8-2H37.2a19.8565,19.8565,0,0,0,1-6,25.8122,25.8122,0,0,0-.4-4H26.2a14.62,14.62,0,0,1,.5-2H37.1a11.9186,11.9186,0,0,0-.8-2H27.5a19.8315,19.8315,0,0,1,1.1-2h6.7a9.51,9.51,0,0,0-1.5-2H30.1A17.0442,17.0442,0,0,1,32,18.2a18.4529,18.4529,0,0,0-12.7-4.9h-.1" transform="translate(-0.5 -13.1)"/><path class="cls-6" d="M19.4,50.9A19.12,19.12,0,0,0,32.1,46h0A17.9693,17.9693,0,0,0,34,44H30.1a23.07,23.07,0,0,1-1.4-1.9h6.7a12.81,12.81,0,0,0,1.1-2H27.6a11.9186,11.9186,0,0,1-.8-2H37.2a19.8565,19.8565,0,0,0,1-6,25.8122,25.8122,0,0,0-.4-4H26.2a14.62,14.62,0,0,1,.5-2H37.1a11.9186,11.9186,0,0,0-.8-2H27.5a19.8315,19.8315,0,0,1,1.1-2h6.7a9.51,9.51,0,0,0-1.5-2H30.1A17.0442,17.0442,0,0,1,32,18.2a18.4529,18.4529,0,0,0-12.7-4.9h-.1" transform="translate(-0.5 -13.1)"/><path class="cls-7" d="M26.1,36.8l.3-1.7a4.3311,4.3311,0,0,1-.5.1c-.7,0-.8-.4-.7-.6l.6-3.5h1.1l.3-1.9h-1l.2-1.2h-2s-1.2,6.6-1.2,7.4a1.5011,1.5011,0,0,0,1.6,1.7A3.07,3.07,0,0,0,26.1,36.8Z" transform="translate(-0.5 -13.1)"/><path class="cls-7" d="M26.8,33.6a3.1808,3.1808,0,0,0,3.5,3.5,5.1918,5.1918,0,0,0,2.1-.3l.4-1.9a5.9948,5.9948,0,0,1-2.1.5c-2.2,0-1.8-1.6-1.8-1.6H33a12.9656,12.9656,0,0,0,.3-1.8,2.7093,2.7093,0,0,0-2.9-2.9C28.3,28.9,26.8,31.1,26.8,33.6Zm3.5-2.9c1.1,0,.9,1.3.9,1.4H29C29,32,29.2,30.7,30.3,30.7Z" transform="translate(-0.5 -13.1)"/><path class="cls-7" d="M43,36.8l.4-2.2a4.9145,4.9145,0,0,1-1.7.5c-1.4,0-2-1.1-2-2.3,0-2.4,1.2-3.7,2.6-3.7a3.3394,3.3394,0,0,1,1.8.6l.3-2.1a7.0311,7.0311,0,0,0-2.3-.5c-2.3,0-4.6,2-4.6,5.8,0,2.5,1.2,4.2,3.6,4.2A8.9748,8.9748,0,0,0,43,36.8Z" transform="translate(-0.5 -13.1)"/><path class="cls-7" d="M15.1,28.9a7.0823,7.0823,0,0,0-2.4.4L12.4,31a5.911,5.911,0,0,1,2.2-.4c.7,0,1.3.1,1.3.7,0,.4-.1.5-.1.5h-.9c-1.7,0-3.6.7-3.6,3,0,1.8,1.2,2.2,1.9,2.2a3.0047,3.0047,0,0,0,2.1-.9l-.1.8H17l.8-5.5A2.37,2.37,0,0,0,15.1,28.9Zm.4,4.5c0,.3-.2,1.9-1.4,1.9a.7806.7806,0,0,1-.8-.8c0-.5.3-1.2,1.8-1.2A1.5769,1.5769,0,0,0,15.5,33.4Z" transform="translate(-0.5 -13.1)"/><path class="cls-7" d="M19.7,37c.5,0,3,.1,3-2.6,0-2.5-2.4-2-2.4-3,0-.5.4-.7,1.1-.7.3,0,1.4.1,1.4.1l.3-1.8a7.5962,7.5962,0,0,0-1.9-.2c-1.5,0-3,.6-3,2.6,0,2.3,2.5,2.1,2.5,3,0,.6-.7.7-1.2.7a6.54,6.54,0,0,1-1.8-.3l-.3,1.8C17.5,36.8,18,37,19.7,37Z" transform="translate(-0.5 -13.1)"/><path class="cls-7" d="M59.6,27.3,59.2,30a2.7728,2.7728,0,0,0-1.9-1c-1.8,0-3.4,2.2-3.4,4.8,0,1.6.8,3.3,2.5,3.3a2.67,2.67,0,0,0,1.9-.8l-.1.7h2l1.5-9.6Zm-.9,5.3c0,1.1-.5,2.5-1.6,2.5-.7,0-1.1-.6-1.1-1.6,0-1.6.7-2.6,1.6-2.6C58.3,30.9,58.7,31.4,58.7,32.6Z" transform="translate(-0.5 -13.1)"/><path class="cls-7" d="M4.2,36.9l1.2-7.2.2,7.2H7l2.6-7.2L8.5,36.9h2.1l1.6-9.6H8.9l-2,5.9-.1-5.9H3.9L2.3,36.9Z" transform="translate(-0.5 -13.1)"/><path class="cls-7" d="M35.2,36.9c.6-3.3.7-6,2.1-5.5a7.8489,7.8489,0,0,1,.7-2.3h-.4c-.9,0-1.6,1.2-1.6,1.2l.2-1.1H34.3L33,37h2.2Z" transform="translate(-0.5 -13.1)"/><path class="cls-7" d="M47.6,28.9a7.0823,7.0823,0,0,0-2.4.4L44.9,31a5.911,5.911,0,0,1,2.2-.4c.7,0,1.3.1,1.3.7,0,.4-.1.5-.1.5h-.9c-1.7,0-3.6.7-3.6,3,0,1.8,1.2,2.2,1.9,2.2a3.0047,3.0047,0,0,0,2.1-.9l-.1.8h1.8l.8-5.5C50.4,29,48.3,28.9,47.6,28.9Zm.5,4.5c0,.3-.2,1.9-1.4,1.9a.7806.7806,0,0,1-.8-.8c0-.5.3-1.2,1.8-1.2C48,33.4,48,33.4,48.1,33.4Z" transform="translate(-0.5 -13.1)"/><path class="cls-7" d="M52,36.9c.6-3.3.7-6,2.1-5.5a7.8489,7.8489,0,0,1,.7-2.3h-.4c-.9,0-1.6,1.2-1.6,1.2l.2-1.1H51.1L49.8,37H52Z" transform="translate(-0.5 -13.1)"/><path class="cls-8" d="M23,35.4a1.5011,1.5011,0,0,0,1.6,1.7,3.8063,3.8063,0,0,0,1.5-.3l.3-1.7a4.3311,4.3311,0,0,1-.5.1c-.7,0-.8-.4-.7-.6l.6-3.5h1.1l.3-1.9h-1l.2-1.2" transform="translate(-0.5 -13.1)"/><path class="cls-8" d="M27.8,33.6c0,2.8.9,3.5,2.5,3.5a5.1918,5.1918,0,0,0,2.1-.3l.4-1.9a5.9948,5.9948,0,0,1-2.1.5c-2.2,0-1.8-1.6-1.8-1.6H33a12.9656,12.9656,0,0,0,.3-1.8,2.7093,2.7093,0,0,0-2.9-2.9C28.3,28.9,27.8,31.1,27.8,33.6Zm2.5-2.9c1.1,0,1.3,1.3,1.3,1.4H29C29,32,29.2,30.7,30.3,30.7Z" transform="translate(-0.5 -13.1)"/><path class="cls-8" d="M43,36.8l.4-2.2a4.9145,4.9145,0,0,1-1.7.5c-1.4,0-2-1.1-2-2.3,0-2.4,1.2-3.7,2.6-3.7a3.3394,3.3394,0,0,1,1.8.6l.3-2.1a7.0311,7.0311,0,0,0-2.3-.5c-2.3,0-3.6,2-3.6,5.8,0,2.5.2,4.2,2.6,4.2A8.9748,8.9748,0,0,0,43,36.8Z" transform="translate(-0.5 -13.1)"/><path class="cls-8" d="M12.4,31.1a5.911,5.911,0,0,1,2.2-.4c.7,0,1.3.1,1.3.7,0,.4-.1.5-.1.5h-.9c-1.7,0-3.6.7-3.6,3,0,1.8,1.2,2.2,1.9,2.2a3.0047,3.0047,0,0,0,2.1-.9l-.1.8H17l.8-5.5c0-2.3-2-2.4-2.8-2.4m1.5,4.3a3.274,3.274,0,0,1-2.4,1.9.7806.7806,0,0,1-.8-.8c0-.5.3-1.2,1.8-1.2A8.17,8.17,0,0,0,16.5,33.4Z" transform="translate(-0.5 -13.1)"/><path class="cls-8" d="M17.5,36.8a8.4636,8.4636,0,0,0,2.3.2c.5,0,3,.1,3-2.6,0-2.5-2.4-2-2.4-3,0-.5.4-.7,1.1-.7.3,0,1.4.1,1.4.1l.3-1.8a7.5962,7.5962,0,0,0-1.9-.2c-1.5,0-2,.6-2,2.6,0,2.3,1.5,2.1,1.5,3,0,.6-.7.7-1.2.7" transform="translate(-0.5 -13.1)"/><path class="cls-8" d="M59.2,30a2.7728,2.7728,0,0,0-1.9-1c-1.8,0-2.4,2.2-2.4,4.8,0,1.6-.2,3.3,1.5,3.3a2.67,2.67,0,0,0,1.9-.8l-.1.7h2l1.5-9.6m-2.6,5.2c0,1.1-.9,2.5-2,2.5-.7,0-1.1-.6-1.1-1.6,0-1.6.7-2.6,1.6-2.6A1.5281,1.5281,0,0,1,59.1,32.6Z" transform="translate(-0.5 -13.1)"/><path class="cls-8" d="M4.2,36.9l1.2-7.2.2,7.2H7l2.6-7.2L8.5,36.9h2.1l1.6-9.6H9.7L6.9,33.2l-.1-5.9H5.7L2.3,36.9Z" transform="translate(-0.5 -13.1)"/><path class="cls-8" d="M33.1,36.9h2.1c.6-3.3.7-6,2.1-5.5a7.8489,7.8489,0,0,1,.7-2.3h-.4c-.9,0-1.6,1.2-1.6,1.2l.2-1.1" transform="translate(-0.5 -13.1)"/><path class="cls-8" d="M44.9,31.1a5.911,5.911,0,0,1,2.2-.4c.7,0,1.3.1,1.3.7,0,.4-.1.5-.1.5h-.9c-1.7,0-3.6.7-3.6,3,0,1.8,1.2,2.2,1.9,2.2a3.0047,3.0047,0,0,0,2.1-.9l-.1.8h1.8l.8-5.5c0-2.3-2-2.4-2.8-2.4M49,33.4a3.274,3.274,0,0,1-2.4,1.9.7806.7806,0,0,1-.8-.8c0-.5.3-1.2,1.8-1.2A8.7974,8.7974,0,0,0,49,33.4Z" transform="translate(-0.5 -13.1)"/><path class="cls-8" d="M49.9,36.9H52c.6-3.3.7-6,2.1-5.5a7.8489,7.8489,0,0,1,.7-2.3h-.4c-.9,0-1.6,1.2-1.6,1.2l.2-1.1" transform="translate(-0.5 -13.1)"/></svg>