<svg id="Layer_1" data-name="Layer 1" xmlns="http://www.w3.org/2000/svg" viewBox="0 0 389.4135 459.998"><defs><style>.cls-1{fill:#002d8a;}.cls-2{fill:#019be1;}</style></defs><title>paypal_icon</title><g id="_250-paypal" data-name="250-paypal"><path class="cls-1" d="M250.585,271.874c68.566-.811,120.299-28.097,142.106-91.593,21.911-61.671,16.332-118.676-44.63-142.311C308.604,22.654,295.62,26.407,141.138,26.407A20.6033,20.6033,0,0,0,120.85,43.549L61.412,420.778a12.325,12.325,0,0,0,12.272,14.099h75.669c2.029,0,2.738-.708,3.043-2.534,4.158-25.664,18.259-116.447,21.808-135.922C180.089,264.774,206.563,272.586,250.585,271.874Z" transform="translate(-61.2929 -26.001)"/><path class="cls-2" d="M423.427,150.46c-1.826-1.319-2.536-1.827-3.043,1.317a237.3144,237.3144,0,0,1-8.927,34.083C370.985,301.29,258.8,291.249,204.026,291.249c-6.188,0-10.245,3.348-11.057,9.534-22.923,142.411-27.488,172.131-27.488,172.131-1.015,7.202,3.55,13.085,10.752,13.085h64.41c8.723,0,15.925-6.391,17.65-15.112.709-5.479-1.115,6.187,14.606-92.609,4.665-22.314,14.504-19.98,29.719-19.98,72.019,0,128.211-29.214,144.948-113.91C454.161,209.088,452.234,171.963,423.427,150.46Z" transform="translate(-61.2929 -26.001)"/></g></svg>