<svg id="Layer_1" data-name="Layer 1" xmlns="http://www.w3.org/2000/svg" viewBox="0 0 450 132.306"><defs><style>.cls-1{fill:#02aa7c;}.cls-2{fill:#502c84;}</style></defs><title>stcpay</title><path class="cls-1" d="M322.862,287.563v-69.89h11.852v5.604c3.607-4.509,8.954-6.957,15.588-6.957,13.656,0,23.447,10.886,23.447,26.474s-9.855,26.668-23.447,26.668c-6.699,0-11.981-2.577-15.588-7.086v25.186H322.862Zm11.853-51.209v12.883c2.512,5.218,7.021,9.018,13.527,9.018,7.859,0,13.141-5.862,13.141-15.524,0-9.533-5.282-15.331-13.141-15.331-6.506.064-11.015,3.607-13.527,8.954" transform="translate(-31 -189.848)"/><path class="cls-1" d="M381.415,253.617c0-8.503,5.282-14.429,14.042-15.524l20.162-2.577v-2.512c0-3.027-1.546-4.638-4.38-4.638H385.924V217.609H411.69c10.242,0,15.846,5.024,15.846,13.914v36.394H415.555v-6.119c-3.478,4.896-9.211,7.665-16.619,7.665-10.435,0-17.521-6.377-17.521-15.846m20.419,6.183c6.055,0,11.659-3.414,13.72-8.438v-6.313l-15.395,2.126c-4.251.58-6.635,2.834-6.635,6.506.001,3.929,3.028,6.119,8.31,6.119" transform="translate(-31 -189.848)"/><path class="cls-1" d="M436.167,276.806h8.632c3.285,0,4.767-1.353,5.862-4.445l1.546-4.445-18.294-50.308h12.368l11.401,35.042h.258l10.886-35.042H481l-20.033,57.78c-2.705,7.923-6.313,12.174-15.137,12.174h-9.662l-.001-10.756Z" transform="translate(-31 -189.848)"/><path class="cls-2" d="M74.48,322.154c13.785,0,25.122-4.316,32.594-11.53a29.8776,29.8776,0,0,0,8.889-21.643,28.0234,28.0234,0,0,0-8.245-20.162c-5.346-5.347-13.012-9.276-22.674-11.144l-15.846-3.092c-6.57-1.224-10.306-4.509-10.306-9.082,0-5.991,5.797-10.113,15.073-10.113,5.797,0,10.757,1.868,14.042,5.153a15.5942,15.5942,0,0,1,3.929,8.438l22.867-5.153a28.2317,28.2317,0,0,0-8.438-17.134c-7.536-7.408-19.067-12.11-32.658-12.11-12.561,0-23.06,4.123-30.339,10.693a30.09,30.09,0,0,0-9.662,22.287c0,7.601,2.448,14.042,7.408,18.938,4.96,4.96,12.174,8.632,21.643,10.95l15.653,3.736c7.859,1.868,11.337,4.767,11.337,9.92,0,6.377-5.797,10.113-15.266,10.113-6.828,0-12.368-2.255-15.846-5.991a14.39,14.39,0,0,1-4.123-9.469L31,290.913a29.4014,29.4014,0,0,0,8.889,18.165c7.794,8.18,20.42,13.076,34.591,13.076m174.048,0c15.266,0,26.99-5.54,35.041-13.398a45.81,45.81,0,0,0,12.368-20.806l-24.091-8.052a22.8867,22.8867,0,0,1-6.377,10.693c-3.929,3.736-9.276,6.377-16.941,6.377a26.0707,26.0707,0,0,1-18.358-7.408c-4.767-4.96-7.665-12.174-7.665-21.257,0-9.276,2.899-16.297,7.665-21.257a25.0739,25.0739,0,0,1,18.165-7.214c7.408,0,12.561,2.448,16.297,6.184a26.2432,26.2432,0,0,1,6.184,10.95l24.542-8.245a46.9122,46.9122,0,0,0-11.53-20.419c-8.245-8.052-20.226-13.785-36.072-13.785A52.0823,52.0823,0,0,0,210.46,229.59c-9.469,9.662-15.266,23.125-15.266,38.778a54.1908,54.1908,0,0,0,15.653,38.778c9.403,9.468,22.801,15.008,37.681,15.008m-83.288,0c10.693,0,18.358-3.285,21.643-6.184V293.683a23.8089,23.8089,0,0,1-13.849,4.123c-4.573,0-7.859-1.031-10.306-3.285-2.061-2.061-3.092-5.604-3.092-10.306V189.848H132.389v27.827h54.43v26.41h-54.43v46.829c0,9.469,2.899,17.134,8.052,22.481,5.797,5.667,14.299,8.759,24.799,8.759" transform="translate(-31 -189.848)"/></svg>