<svg id="svgexport-6_7_" data-name="svgexport-6 (7)" xmlns="http://www.w3.org/2000/svg" width="19.906" height="36.65" viewBox="0 0 19.906 36.65">
  <g id="Group_16052" data-name="Group 16052">
    <g id="Group_16051" data-name="Group 16051">
      <path id="Path_15049" data-name="Path 15049" d="M128.526,12.416l-5.04-6.373a5.426,5.426,0,0,0-3.462-1.991V.766a.766.766,0,0,0-1.532,0V4.052a5.325,5.325,0,0,0-3.454,1.991l-5.055,6.38a3.191,3.191,0,0,0-.682,1.961V33.525a3.138,3.138,0,0,0,3.148,3.125h13.6a3.138,3.138,0,0,0,3.163-3.11V14.384A3.23,3.23,0,0,0,128.526,12.416Zm-9.268-.9a2.229,2.229,0,1,1-2.229,2.229A2.226,2.226,0,0,1,119.258,11.52Zm8.425,22.005a1.605,1.605,0,0,1-1.631,1.593H112.464a1.605,1.605,0,0,1-1.631-1.593V14.384a1.607,1.607,0,0,1,.352-1.011l5.047-6.38a3.841,3.841,0,0,1,2.259-1.386v4.458a3.763,3.763,0,1,0,1.532,0V5.607a3.871,3.871,0,0,1,.911.306,3.82,3.82,0,0,1,1.34,1.08l5.055,6.373a1.644,1.644,0,0,1,.352,1.019Z" transform="translate(-109.301)" fill="#d1a126"/>
    </g>
  </g>
  <g id="Group_16054" data-name="Group 16054" transform="translate(7.397 21.569)">
    <g id="Group_16053" data-name="Group 16053">
      <path id="Path_15050" data-name="Path 15050" d="M210.875,287.965a2.566,2.566,0,0,0-2.443-1.792,1.026,1.026,0,1,1,1.026-1.026.766.766,0,0,0,1.532,0A2.565,2.565,0,0,0,209.2,282.7v-.337a.766.766,0,0,0-1.532,0v.337a2.559,2.559,0,0,0,.766,5,1.026,1.026,0,1,1-1.026,1.026.766.766,0,1,0-1.532,0,2.566,2.566,0,0,0,1.792,2.443v.383a.766.766,0,0,0,1.532,0v-.383A2.563,2.563,0,0,0,210.875,287.965Z" transform="translate(-205.871 -281.6)" fill="#d1a126"/>
    </g>
  </g>
</svg>
