<svg id="Layer_1" data-name="Layer 1" xmlns="http://www.w3.org/2000/svg" viewBox="0 0 461.045 149.271"><defs><style>.cls-1{isolation:isolate;}.cls-2{fill:#005bac;}.cls-3{fill:#f6ac1d;}</style></defs><title>visa_icon</title><g id="形状_1" data-name="形状 1" class="cls-1"><g id="形状_1-2" data-name="形状 1"><path class="cls-2" d="M211.328,184.445,187.863,328.653h37.542l23.468-144.208Zm-55.052,0L120.482,283.63l-4.234-21.358.003.007-.933-4.787a119.5879,119.5879,0,0,0-33.31-42.223A150.1893,150.1893,0,0,0,65.303,203.71L97.834,328.653H136.95l59.733-144.208ZM302.797,224.48c0-16.304,36.563-14.209,52.629-5.356l5.357-30.972s-16.534-6.288-33.768-6.288c-18.632,0-62.875,8.148-62.875,47.739,0,37.26,51.928,37.723,51.928,57.285s-46.574,16.066-61.944,3.726l-5.586,32.373s16.763,8.148,42.382,8.148c25.616,0,64.272-13.271,64.272-49.37C355.192,244.272,302.797,240.78,302.797,224.48Zm153.2-40.035H425.812c-13.938,0-17.332,10.747-17.332,10.747L352.492,328.653h39.131l7.828-21.419h47.728l4.403,21.419h34.472ZM410.27,277.641l19.728-53.966,11.098,53.966Z" transform="translate(-25.009 -181.864)"/></g></g><g id="形状_1-3" data-name="形状 1" class="cls-1"><g id="形状_1-4" data-name="形状 1"><path class="cls-3" d="M104.132,198.022s-1.554-13.015-18.144-13.015H25.715l-.706,2.446s28.972,5.906,56.767,28.033c26.562,21.148,35.227,47.51,35.227,47.51Z" transform="translate(-25.009 -181.864)"/></g></g></svg>