<svg width="19" height="19" viewBox="0 0 19 19" fill="none" xmlns="http://www.w3.org/2000/svg">
<g id="8541611_calendar_schedule_event_date_icon 1" clip-path="url(#clip0_55_5938)">
<path id="Vector" d="M0 17.2188C0 18.2021 0.91183 19 2.03571 19H16.9643C18.0882 19 19 18.2021 19 17.2188V7.125H0V17.2188ZM13.5714 9.94531C13.5714 9.70039 13.8004 9.5 14.0804 9.5H15.7768C16.0567 9.5 16.2857 9.70039 16.2857 9.94531V11.4297C16.2857 11.6746 16.0567 11.875 15.7768 11.875H14.0804C13.8004 11.875 13.5714 11.6746 13.5714 11.4297V9.94531ZM13.5714 14.6953C13.5714 14.4504 13.8004 14.25 14.0804 14.25H15.7768C16.0567 14.25 16.2857 14.4504 16.2857 14.6953V16.1797C16.2857 16.4246 16.0567 16.625 15.7768 16.625H14.0804C13.8004 16.625 13.5714 16.4246 13.5714 16.1797V14.6953ZM8.14286 9.94531C8.14286 9.70039 8.37187 9.5 8.65179 9.5H10.3482C10.6281 9.5 10.8571 9.70039 10.8571 9.94531V11.4297C10.8571 11.6746 10.6281 11.875 10.3482 11.875H8.65179C8.37187 11.875 8.14286 11.6746 8.14286 11.4297V9.94531ZM8.14286 14.6953C8.14286 14.4504 8.37187 14.25 8.65179 14.25H10.3482C10.6281 14.25 10.8571 14.4504 10.8571 14.6953V16.1797C10.8571 16.4246 10.6281 16.625 10.3482 16.625H8.65179C8.37187 16.625 8.14286 16.4246 8.14286 16.1797V14.6953ZM2.71429 9.94531C2.71429 9.70039 2.9433 9.5 3.22321 9.5H4.91964C5.19955 9.5 5.42857 9.70039 5.42857 9.94531V11.4297C5.42857 11.6746 5.19955 11.875 4.91964 11.875H3.22321C2.9433 11.875 2.71429 11.6746 2.71429 11.4297V9.94531ZM2.71429 14.6953C2.71429 14.4504 2.9433 14.25 3.22321 14.25H4.91964C5.19955 14.25 5.42857 14.4504 5.42857 14.6953V16.1797C5.42857 16.4246 5.19955 16.625 4.91964 16.625H3.22321C2.9433 16.625 2.71429 16.4246 2.71429 16.1797V14.6953ZM16.9643 2.375H14.9286V0.59375C14.9286 0.267188 14.6232 0 14.25 0H12.8929C12.5196 0 12.2143 0.267188 12.2143 0.59375V2.375H6.78571V0.59375C6.78571 0.267188 6.48036 0 6.10714 0H4.75C4.37679 0 4.07143 0.267188 4.07143 0.59375V2.375H2.03571C0.91183 2.375 0 3.17285 0 4.15625V5.9375H19V4.15625C19 3.17285 18.0882 2.375 16.9643 2.375Z" fill="#333333" fill-opacity="0.7"/>
</g>
<defs>
<clipPath id="clip0_55_5938">
<rect width="19" height="19" fill="white"/>
</clipPath>
</defs>
</svg>
