<svg width="19" height="19" viewBox="0 0 19 19" fill="none" xmlns="http://www.w3.org/2000/svg">
<g id="5402397_email_inbox_mail_message_envelope_icon">
<path id="Vector" d="M10.0461 9.54752C9.90067 9.67881 9.71168 9.75148 9.51572 9.75148C9.31977 9.75148 9.13078 9.67881 8.98531 9.54752L2.27197 3.44377C2.53541 3.26332 2.84724 3.16673 3.16656 3.16669H15.8332C16.1525 3.16673 16.4644 3.26332 16.7278 3.44377L10.0461 9.54752Z" fill="#333333" fill-opacity="0.7"/>
<path id="Vector_2" d="M17.4166 4.95581V13.4583C17.4166 14.0882 17.1664 14.6923 16.721 15.1377C16.2756 15.5831 15.6715 15.8333 15.0416 15.8333H3.95825C3.32836 15.8333 2.72427 15.5831 2.27887 15.1377C1.83347 14.6923 1.58325 14.0882 1.58325 13.4583V4.95581L8.45492 11.2258C8.74472 11.4775 9.11608 11.6154 9.49992 11.6137C9.88855 11.6129 10.2633 11.4692 10.5528 11.21L17.4166 4.95581Z" fill="#333333" fill-opacity="0.7"/>
</g>
</svg>
