<svg width="18" height="18" viewBox="0 0 18 18" fill="none" xmlns="http://www.w3.org/2000/svg">
<g id="3844443_disable_eye_inactive_see_show_icon">
<path id="XMLID_323_" d="M11.6561 14.0423C11.7101 14.0963 11.6881 14.1908 11.615 14.2144C7.28374 15.6015 2.59699 13.3689 1.15586 9.18451C1.11536 9.06638 1.11536 8.93476 1.15586 8.81607C1.5738 7.60276 2.27524 6.53963 3.17411 5.68126C3.20843 5.64863 3.26299 5.64976 3.29618 5.68294L5.71605 8.10282C5.73293 8.11969 5.73911 8.14332 5.73349 8.16638C5.10574 10.6104 7.39174 12.8886 9.82624 12.2693C9.8538 12.2619 9.87968 12.267 9.89993 12.2873C10.1013 12.4881 11.2752 13.6614 11.6561 14.0423Z" fill="#333333" fill-opacity="0.7"/>
<path id="XMLID_325_" d="M13.8824 13.0871C15.2358 12.1354 16.2905 10.7927 16.8445 9.18283C16.885 9.06471 16.885 8.93533 16.8445 8.81721C15.724 5.56202 12.5718 3.37502 8.9999 3.37502C7.60546 3.37502 6.27683 3.71083 5.10683 4.31158L2.08508 1.28983C1.86515 1.06989 1.50965 1.06989 1.28971 1.28983C1.06977 1.50977 1.06977 1.86527 1.28971 2.08521L15.9147 16.7102C16.1346 16.9301 16.4901 16.9301 16.7101 16.7102C16.93 16.4903 16.93 16.1348 16.7101 15.9148L13.8824 13.0871ZM8.9999 5.62502C10.8612 5.62502 12.3749 7.13871 12.3749 9.00002C12.3749 9.72789 12.1409 10.4006 11.7477 10.9525L7.04746 6.25221C7.59927 5.85902 8.27202 5.62502 8.9999 5.62502Z" fill="#333333" fill-opacity="0.7"/>
</g>
</svg>
