<svg width="19" height="19" viewBox="0 0 19 19" fill="none" xmlns="http://www.w3.org/2000/svg">
<g id="8673632_ic_fluent_person_filled_icon 1">
<path id="Vector" d="M14.0556 11.0831C15.0389 11.0831 15.836 11.8801 15.836 12.8635V13.5905C15.836 14.0445 15.694 14.487 15.4302 14.8563C14.2063 16.5689 12.2079 17.4173 9.50019 17.4173C6.79194 17.4173 4.7946 16.5686 3.57372 14.8551C3.31092 14.4862 3.16968 14.0446 3.16968 13.5917V12.8635C3.16968 11.8801 3.96678 11.0831 4.95004 11.0831H14.0556ZM9.50019 1.58681C11.6863 1.58681 13.4585 3.35902 13.4585 5.54514C13.4585 7.73127 11.6863 9.50348 9.50019 9.50348C7.31408 9.50348 5.54188 7.73127 5.54188 5.54514C5.54188 3.35902 7.31408 1.58681 9.50019 1.58681Z" fill="#333333" fill-opacity="0.7"/>
</g>
</svg>
