<svg xmlns="http://www.w3.org/2000/svg" width="258.469" height="260.395" viewBox="0 0 258.469 260.395">
  <g id="Group_16101" data-name="Group 16101" transform="translate(-0.007 0)">
    <path id="Path_15143" data-name="Path 15143" d="M380.746,680.565a1.392,1.392,0,0,1-1.009-2.413l.1-.379a3.741,3.741,0,0,0-6.935-.065c-1.65,3.863-3.786,7.862-2.724,12.116a44.32,44.32,0,0,1,5.739-46.083,11.413,11.413,0,0,0,5.794-7.641c-1.418.481-3.187-.673-2.12-2.167.462-.571.929-1.138,1.391-1.709-5.388-5.738-11.808,3.28-5.877,11.025a44.643,44.643,0,0,0-5.014,7.843,18.771,18.771,0,0,0-1.121-8.719c-1.073-2.588-3.083-4.767-4.854-7a3.853,3.853,0,0,0-6.873,1.991c1.987.653,2.245,3.523-.028,3.916A19.217,19.217,0,0,0,367.8,656.446a44.817,44.817,0,0,0-2.449,18.733c-1.022-7.418-8.985-9.219-14.551-12.167a2.168,2.168,0,0,0-3.307,2.2,12.525,12.525,0,0,1,2.2,1.158,1.893,1.893,0,0,1-.879,3.455,19.108,19.108,0,0,0,17.509,11.58,46.078,46.078,0,0,0,3.1,9.036h11.057c.04-.123.075-.25.111-.373a12.562,12.562,0,0,1-3.06-.182c2.708-3.206,4.8-4.842,3.226-9.317Z" transform="translate(-315.541 -430.687)" fill="#f2f2f2"/>
    <path id="Path_15144" data-name="Path 15144" d="M688.1,680.565a1.392,1.392,0,0,0,1.009-2.413l-.1-.379a3.741,3.741,0,0,1,6.935-.065c1.65,3.863,3.786,7.862,2.724,12.116a44.32,44.32,0,0,0-5.739-46.083,11.413,11.413,0,0,1-5.794-7.641c1.418.481,3.187-.673,2.12-2.167-.462-.571-.929-1.138-1.391-1.709,5.388-5.738,11.808,3.28,5.877,11.025a44.643,44.643,0,0,1,5.014,7.843,18.771,18.771,0,0,1,1.121-8.719c1.073-2.588,3.083-4.767,4.854-7a3.853,3.853,0,0,1,6.873,1.991c-1.987.653-2.245,3.523.028,3.916a19.217,19.217,0,0,1-10.589,15.171,44.819,44.819,0,0,1,2.449,18.733c1.022-7.418,8.985-9.219,14.551-12.167a2.168,2.168,0,0,1,3.307,2.2,12.519,12.519,0,0,0-2.195,1.158,1.893,1.893,0,0,0,.879,3.455,19.108,19.108,0,0,1-17.509,11.58,46.075,46.075,0,0,1-3.1,9.036H688.373c-.04-.123-.075-.25-.111-.373a12.565,12.565,0,0,0,3.06-.182c-2.708-3.206-4.8-4.842-3.226-9.317Z" transform="translate(-524.316 -430.687)" fill="#f2f2f2"/>
    <path id="Path_15145" data-name="Path 15145" d="M417.748,623.377l-4.762,1.083-6.445-17.851,7.028-1.6Z" transform="translate(-249.868 -371.858)" fill="#ffb6b6"/>
    <path id="Path_15146" data-name="Path 15146" d="M679.977,767.263l-14.643,3.332-.042-.185a5.845,5.845,0,0,1,4.4-7h0l2.213-2.638,5.452.894,1.278-.291Z" transform="translate(-510.8 -510.814)" fill="#2f2e41"/>
    <path id="Path_15147" data-name="Path 15147" d="M609.586,426.88,612.2,431l-14.655,12.06-3.864-6.085Z" transform="translate(-364.893 -262.374)" fill="#ffb6b6"/>
    <path id="Path_15148" data-name="Path 15148" d="M902.385,531.565l8.051,12.677-.16.1a5.845,5.845,0,0,1-8.068-1.8h0l-3.227-1.2-.987-5.436-.7-1.107Z" transform="translate(-653.483 -369.935)" fill="#2f2e41"/>
    <path id="Path_15149" data-name="Path 15149" d="M503.843,383.627l-1.176-6.817,17.88-8.074,3.861-6.836a3.324,3.324,0,1,1,4.909,2.206l-6.352,9.82Z" transform="translate(-410.936 -263.194)" fill="#a0616a"/>
    <path id="Path_15150" data-name="Path 15150" d="M226.971,291.492l8.052-4.113,2.131,8-5.593,4.146Z" transform="translate(-139.499 -176.632)" fill="#d1a126"/>
    <path id="Path_15151" data-name="Path 15151" d="M180.084,621.111h4.868l2.316-18.779h-7.186Z" transform="translate(-110.68 -370.212)" fill="#a0616a"/>
    <path id="Path_15152" data-name="Path 15152" d="M447.744,759.084v-3.3l-1.28.078-5.21.309-1.206.074-.922,11.054-.049.593h3.457l.111-.589.5-2.675,1.3,2.675.284.588h9.165a2.071,2.071,0,0,0,2.058-2.062C456.337,764.022,448.715,760.117,447.744,759.084Z" transform="translate(-371.851 -507.747)" fill="#2f2e41"/>
    <path id="Path_15153" data-name="Path 15153" d="M28.313,457.676l-1.135,4.735L44.9,469.041l1.675-6.988Z" transform="translate(-16.7 -281.302)" fill="#a0616a"/>
    <path id="Path_15154" data-name="Path 15154" d="M274.7,569.217l3.21.77.222-1.263.915-5.138.209-1.19-10.534-3.474-.565-.186-.806,3.362.546.245,2.484,1.112-2.9.637-.639.139-2.137,8.912a2.071,2.071,0,0,0,1.525,2.482C267.9,576.421,273.472,569.921,274.7,569.217Z" transform="translate(-264.644 -386.635)" fill="#2f2e41"/>
    <path id="Path_15155" data-name="Path 15155" d="M414.488,443.167l-6.266-2.929-12.5,15.123-7.612,1.925a3.324,3.324,0,1,0,.836,5.317l11.146-3.542Z" transform="translate(-337.556 -313.803)" fill="#a0616a"/>
    <path id="Path_15156" data-name="Path 15156" d="M684.091,281.141a6.716,6.716,0,1,1,6.716-6.716A6.716,6.716,0,0,1,684.091,281.141Zm0-12.662a5.945,5.945,0,1,0,5.945,5.945,5.945,5.945,0,0,0-5.945-5.945Z" transform="translate(-518.316 -207.761)" fill="#e6e6e6"/>
    <path id="Path_15157" data-name="Path 15157" d="M690.563,283.395h-.04a.828.828,0,0,1-.614-.319l-1.058-1.36a.828.828,0,0,1,.145-1.162l.038-.03a.828.828,0,0,1,1.163.145.6.6,0,0,0,.915.045l2.148-2.268a.83.83,0,0,1,1.171-.032l.035.034a.828.828,0,0,1,.032,1.171l-3.334,3.519A.828.828,0,0,1,690.563,283.395Z" transform="translate(-525.263 -214.201)" fill="#e6e6e6"/>
    <path id="Path_15158" data-name="Path 15158" d="M597.091,492.141a6.716,6.716,0,1,1,6.716-6.716A6.716,6.716,0,0,1,597.091,492.141Zm0-12.662a5.945,5.945,0,1,0,5.945,5.945,5.945,5.945,0,0,0-5.945-5.945Z" transform="translate(-464.844 -337.448)" fill="#e6e6e6"/>
    <path id="Path_15159" data-name="Path 15159" d="M603.563,494.395h-.04a.828.828,0,0,1-.614-.319l-1.058-1.36a.828.828,0,0,1,.145-1.162l.038-.03a.828.828,0,0,1,1.163.145.6.6,0,0,0,.915.045l2.148-2.268a.83.83,0,0,1,1.171-.032l.035.034a.828.828,0,0,1,.032,1.171l-3.334,3.519A.827.827,0,0,1,603.563,494.395Z" transform="translate(-471.79 -343.888)" fill="#e6e6e6"/>
    <path id="Path_15160" data-name="Path 15160" d="M406.091,257.141a6.716,6.716,0,1,1,6.716-6.716A6.716,6.716,0,0,1,406.091,257.141Zm0-12.662a5.945,5.945,0,1,0,5.945,5.945,5.945,5.945,0,0,0-5.945-5.945Z" transform="translate(-347.449 -193.01)" fill="#e6e6e6"/>
    <path id="Path_15161" data-name="Path 15161" d="M412.563,259.395h-.041a.828.828,0,0,1-.614-.319l-1.058-1.36a.828.828,0,0,1,.145-1.162l.038-.03a.828.828,0,0,1,1.163.145.6.6,0,0,0,.915.045l2.148-2.268a.829.829,0,0,1,1.171-.032l.035.034a.828.828,0,0,1,.032,1.171l-3.334,3.519A.827.827,0,0,1,412.563,259.395Z" transform="translate(-354.395 -199.45)" fill="#e6e6e6"/>
    <path id="Path_15162" data-name="Path 15162" d="M389.776,511.072c-15.574,0-33.472-17.282-49.308-9.071-47.946,24.862-41.346-16.74-55.12-32.213l.452-.907c15.2,13.628,34.174,24.716,54.876,32.065,18.708,6.642,37.556,9.719,54.5,8.907l.029,1.09Q392.522,511.072,389.776,511.072Z" transform="translate(-277.365 -331.408)" fill="#f2f2f2"/>
    <ellipse id="Ellipse_1262" data-name="Ellipse 1262" cx="3.255" cy="4.365" rx="3.255" ry="4.365" transform="translate(87.792 54.086)" fill="#e6e6e6"/>
    <path id="Path_15163" data-name="Path 15163" d="M595.074,447.788a1.379,1.379,0,0,1-1.495-2.316A1.379,1.379,0,0,1,595.074,447.788Z" transform="translate(-466.427 -316.873)" fill="#e6e6e6"/>
    <circle id="Ellipse_1263" data-name="Ellipse 1263" cx="4.239" cy="4.239" r="4.239" transform="translate(115.841 42.98)" fill="#ff6584"/>
    <path id="Path_15164" data-name="Path 15164" d="M610.474,182.6,634.6,112.149l-26.487,69.606a1.326,1.326,0,1,0,2.365.843Z" transform="translate(-475.567 -112.149)" fill="#f0f0f0" opacity="0.3"/>
    <circle id="Ellipse_1264" data-name="Ellipse 1264" cx="4.124" cy="4.124" r="4.124" transform="translate(106.435 148.027)" fill="#f2f2f2"/>
    <path id="Path_15165" data-name="Path 15165" d="M377.646,511.053s-10.282,6.7-7.563,11.144c.094.153-12.282,16.5-12.282,16.5l-23.362-1.483-.823,7.819,20.8,6.024s5.088,3.738,9.019-.38,17.023-16.731,17.023-16.731l.632,25.464-6.572,35.285,9.813-.622,9.552-35.4,3.526-40.1Z" transform="translate(-307.032 -357.328)" fill="#2f2e41"/>
    <path id="Path_15166" data-name="Path 15166" d="M442.62,404.067l-4.324,3.277-4.928,10.518,4.739,6.436s3.986,6.908-2.394,13.6-11.28,13.836-6.173,13.581,25.791,10.265,25.927,1.646.412-15.227.412-15.227l5.423-13.754s3.231-8.205.962-10.661-5.305-5.595-5.305-5.595l-5.523-5.523h-4.987Z" transform="translate(-364.683 -290.523)" fill="#d1a126"/>
    <path id="Path_15167" data-name="Path 15167" d="M467.809,352.592c9.7,5.52,1.737,20.083-8.144,14.9C449.966,361.969,457.929,347.406,467.809,352.592Z" transform="translate(-381.8 -259.258)" fill="#a0616a"/>
    <path id="Path_15168" data-name="Path 15168" d="M466.694,349.085c-.68.884-2.1.47-4.88,1.1a11.593,11.593,0,0,0-.324-2.8,7.879,7.879,0,0,1-1.328,3.149c-2.415.268.545,7.6-.691,13-1.593-11.378-4.943-8.4-3.251-6.14,1.083,1.445.361,5.779-2.89,3.612-5.364,2.549-13-10.113-4.536-16.052-.151-3.21,3.42-3.717,5.62-2.73C459.752,338.247,465.85,343.341,466.694,349.085Z" transform="translate(-375.499 -252.691)" fill="#2f2e41"/>
    <path id="Path_15169" data-name="Path 15169" d="M404.3,338.835c-2.16,13.278-13.735-2.442-19.177,10.625-1.711,4.732,1.225,8.117,3.082,12.045.424,3.228-3.775,4.866-4.215,7.837-.122,6.812,10.867,6.4,13.94,2.1,3.157-4.5-.613-10.535,1.285-15.364,2.667-6.7,13.512-6.754,14.457-14.554C411.842,338.915,406.922,335.93,404.3,338.835Z" transform="translate(-337.993 -250.743)" fill="#2f2e41"/>
    <path id="Path_15170" data-name="Path 15170" d="M455.35,337.442c-.071.03-.141.06-.2.093h0c-.06.03-.119.06-.178.093l-.019.011c-.078-.074-.156-.149-.238-.223a.862.862,0,0,0,.015.364l.011.045c.074.078.152.152.234.231.074-.056.145-.115.219-.171.045-.037.089-.074.138-.112.007-.1.019-.208.03-.331Zm2.238-4.135c-1.658-.379-2.194,1.789-2.354,2.833-.6-3.793-3.109-2.6-2.242-.011a5.8,5.8,0,0,0,1.275,2.053c.078.089.164.178.253.268-.1.521.405.387,1.089-.093A9.12,9.12,0,0,0,457,337.134c1.365-1.431,2.428-3.347.584-3.826Zm.052,2.134a12.988,12.988,0,0,1-1.714,1.818q-.3.268-.6.513c0,.033,0,.063-.007.089a.684.684,0,0,1-.052.1c-.208.376-.442.171-.532-.141-.007-.011-.019-.022-.026-.033a5.24,5.24,0,0,1-.77-1.019c-1.536-2.662.937-4.473.814.5a.472.472,0,0,0-.045.145.861.861,0,0,0,.015.364l.011.045c.074.078.152.152.234.231.074-.056.145-.115.219-.171.045-.037.089-.074.138-.112.007-.1.019-.208.03-.331v0c.1-1,.361-2.789.848-3.276,1.071-.821,2.458.067,1.439,1.279Zm-2.29,2c-.071.03-.141.06-.2.093h0c-.06.03-.119.06-.178.093l-.019.011c-.078-.074-.156-.149-.238-.223a.861.861,0,0,0,.015.364l.011.045c.074.078.152.152.234.231.074-.056.145-.115.219-.171.045-.037.089-.074.138-.112.007-.1.019-.208.03-.331Z" transform="translate(-380.293 -248.053)" fill="#2f2e41"/>
    <path id="Path_15171" data-name="Path 15171" d="M659.523,524.206l-3.582,9.343L639.135,566.7,653.9,605.261l7.621-2.012L655.242,566.7l18.021-21.9,21.4,14.516s9.492,7.41,13.1.385,26.976-21.966,26.976-21.966l-5.781-6.166-26.906,12.591-18.57-26.139Z" transform="translate(-494.813 -361.612)" fill="#2f2e41"/>
    <path id="Path_15172" data-name="Path 15172" d="M693.638,407.388l-5.9-6.336-10.116-1.392-12.4,8.677.125,9.6,6.127,22.632s-2.334,16.26,4.185,16.1,10.072-3.413,12.727-2.752,13.942,3.477,14.657.528,4.517-.838,4.35-3.628-10.293-22.9-10.293-22.9l2.518-20.113Z" transform="translate(-510.852 -288.863)" fill="#d1a126"/>
    <path id="Path_15173" data-name="Path 15173" d="M802.229,338.781a3.612,3.612,0,0,1-3.87,3.963L784.8,368.535l-3.641-5.589L795.018,338.6a3.632,3.632,0,0,1,7.211.177Z" transform="translate(-582.104 -249.421)" fill="#ffb6b6"/>
    <path id="Path_15174" data-name="Path 15174" d="M725.029,389.01s-.538,4.588,4.627,5.723,19.474-7.04,21.819-8.289c.735-.391,1.731-2.308,2.754-4.756.459-1.1.923-2.306,1.372-3.529.259-.708,1.5-.9,1.746-1.6s-.511-1.906-.291-2.564c1.045-3.124,1.785-5.6,1.785-5.6l-3.423-6.43c-4.788,2.531-7.243,8.106-9.049,14.529Z" transform="translate(-547.596 -265.689)" fill="#d1a126"/>
    <path id="Path_15175" data-name="Path 15175" d="M568.46,352.689a3.612,3.612,0,0,0,4.739,2.868l19.584,21.577,2.126-6.323-19.512-20.1a3.632,3.632,0,0,0-6.937,1.976Z" transform="translate(-451.346 -257.405)" fill="#ffb6b6"/>
    <path id="Path_15176" data-name="Path 15176" d="M637.4,387.352s1.669,4.307-3.047,6.7-20.616-1.943-23.2-2.565c-.809-.195-2.254-1.8-3.857-3.916-.72-.949-1.471-2-2.211-3.074-.428-.621-1.679-.5-2.092-1.116s.018-1.973-.36-2.556c-1.794-2.764-3.131-4.978-3.131-4.978l1.705-7.082c5.269,1.252,9.041,6.035,12.4,11.8Z" transform="translate(-470.457 -269.874)" fill="#d1a126"/>
    <circle id="Ellipse_1265" data-name="Ellipse 1265" cx="9.625" cy="9.625" r="9.625" transform="translate(162.408 89.936)" fill="#ffb6b6"/>
    <path id="Path_15177" data-name="Path 15177" d="M705.637,343.645a4.963,4.963,0,0,0-4.754-2.317,6.492,6.492,0,0,0-10.878-3.787,2.019,2.019,0,0,0-1.974-.2,4.163,4.163,0,0,0-1.6,1.288,9.343,9.343,0,0,0-1.307,9.5c-.225-.818.595-1.588,1.424-1.772s1.7-.01,2.538-.129c1.077-.153,2.045-.778,3.124-.919a7.113,7.113,0,0,1,2.7.347,7.326,7.326,0,0,0,2.7.363c.908-.108,2.077,3.333,2.062,5.756,0,.459.092,1.049.54,1.146.553.12.873-.643,1.4-.851a.973.973,0,0,1,1.194.635,1.587,1.587,0,0,1-.3,1.421,4.688,4.688,0,0,1-1.137.986l.217.18a1.289,1.289,0,0,0,1.627.2,3.512,3.512,0,0,0,1.168-1.33,15.656,15.656,0,0,0,2.143-5.135A7.479,7.479,0,0,0,705.637,343.645Z" transform="translate(-522.618 -249.595)" fill="#2f2e41"/>
    <path id="Path_15178" data-name="Path 15178" d="M751.5,447.957c-12.415,9.4-37.117,6.433-44.783,22.539-23.21,48.767-43.067,11.618-63.389,7.6l-.187-1c20.344,1.687,42.165-.931,63.1-7.571,18.923-6,35.806-14.927,48.823-25.805l.682.851Q753.692,446.3,751.5,447.957Z" transform="translate(-497.277 -315.946)" fill="#f2f2f2"/>
    <path id="Path_15179" data-name="Path 15179" d="M517.886,785.1c-.3.876-169.116.876-169.435,0C348.746,784.223,517.566,784.223,517.886,785.1Z" transform="translate(-316.15 -525.361)" fill="#ccc"/>
  </g>
</svg>
